G04 Layer: BottomPasteMaskLayer*
G04 EasyEDA Pro v2.2.25.6, 2024-08-18 10:38:01*
G04 Gerber Generator version 0.3*
G04 Scale: 100 percent, Rotated: No, Reflected: No*
G04 Dimensions in millimeters*
G04 Leading zeros omitted, absolute positions, 3 integers and 5 decimals*
%FSLAX35Y35*%
%MOMM*%
%ADD10O,2.03799X0.57399*%
%ADD11R,2.0X2.0*%
G75*


G04 PolygonModel Start*
G36*
G01X1739491Y231253D02*
G03X1639491Y231253I-50000J0D01*
G01X1639491Y131253D01*
G03X1739491Y131253I50000J0D01*
G01X1739491Y231253D01*
G37*
G36*
G01X1174496Y231253D02*
G03X1074496Y231253I-50000J0D01*
G01X1074496Y131253D01*
G03X1174496Y131253I50000J0D01*
G01X1174496Y231253D01*
G37*
G36*
G01X1811993Y516248D02*
G01X1661991Y516248D01*
G01X1661991Y396248D01*
G01X1811993Y396248D01*
G01X1811993Y516248D01*
G37*
G36*
G01X1151992Y516246D02*
G01X1001992Y516246D01*
G01X1001992Y396246D01*
G01X1151992Y396246D01*
G01X1151992Y516246D01*
G37*
G36*
G01X1557002Y533807D02*
G01X1516995Y533807D01*
G01X1516995Y383688D01*
G01X1556990Y383688D01*
G01X1556990Y392416D01*
G01X1557002Y533807D01*
G37*
G36*
G01X1492004Y533807D02*
G01X1451996Y533807D01*
G01X1451996Y383688D01*
G01X1491991Y383688D01*
G01X1491991Y392416D01*
G01X1492004Y533807D01*
G37*
G36*
G01X1427002Y533807D02*
G01X1386995Y533807D01*
G01X1386995Y383688D01*
G01X1426990Y383688D01*
G01X1426990Y392416D01*
G01X1427002Y533807D01*
G37*
G36*
G01X1362004Y533807D02*
G01X1321996Y533807D01*
G01X1321996Y383688D01*
G01X1361991Y383688D01*
G01X1361991Y392416D01*
G01X1362004Y533807D01*
G37*
G36*
G01X1297008Y533807D02*
G01X1257000Y533807D01*
G01X1257000Y383688D01*
G01X1296995Y383688D01*
G01X1296995Y392416D01*
G01X1297008Y533807D01*
G37*
G36*
G01X1251335Y1921455D02*
G01X1123337Y1921455D01*
G01X1118335Y1916454D01*
G01X1118335Y1801453D01*
G01X1123337Y1796454D01*
G01X1164340Y1795951D01*
G01X1164340Y1840953D01*
G01X1209338Y1840953D01*
G01X1209338Y1796952D01*
G01X1251335Y1796454D01*
G01X1256336Y1801453D01*
G01X1256336Y1916454D01*
G01X1251335Y1921455D01*
G37*
G36*
G01X1251335Y1706455D02*
G01X1209338Y1706452D01*
G01X1209338Y1661954D01*
G01X1164340Y1661954D01*
G01X1164340Y1705952D01*
G01X1123337Y1706455D01*
G01X1118335Y1701453D01*
G01X1118335Y1586455D01*
G01X1123337Y1581454D01*
G01X1251335Y1581454D01*
G01X1256336Y1586455D01*
G01X1256336Y1701453D01*
G01X1251335Y1706455D01*
G37*

G04 Pad Start*
G54D10*
G01X1471889Y1649500D03*
G01X1471889Y1776500D03*
G01X1471889Y1903500D03*
G01X1471889Y2030500D03*
G01X2025711Y1649500D03*
G01X2025711Y1776500D03*
G01X2025711Y1903500D03*
G01X2025711Y2030500D03*
G54D11*
G01X1748800Y1840000D03*
G04 Pad End*

M02*

