G04 Layer: BottomSilkscreenLayer*
G04 EasyEDA Pro v2.2.25.6, 2024-08-18 10:38:01*
G04 Gerber Generator version 0.3*
G04 Scale: 100 percent, Rotated: No, Reflected: No*
G04 Dimensions in millimeters*
G04 Leading zeros omitted, absolute positions, 3 integers and 5 decimals*
%FSLAX35Y35*%
%MOMM*%
%ADD10C,0.254*%
%ADD11C,0.1524*%
%ADD12C,0.3*%
G75*


G04 Text Start*
G36*
G01X579550Y676804D02*
G01X579100Y676781D01*
G01X578698Y676899D01*
G01X578366Y677183D01*
G01X578129Y677657D01*
G01X577987Y678319D01*
G01X577940Y679172D01*
G01X577970Y679628D01*
G01X578059Y680048D01*
G01X578206Y680432D01*
G01X578414Y680782D01*
G01X578680Y681095D01*
G01X579005Y681374D01*
G01X579390Y681616D01*
G01X580710Y682226D01*
G01X581444Y682676D01*
G01X582036Y683173D01*
G01X582486Y683717D01*
G01X583338Y684759D01*
G01X584380Y685611D01*
G01X584900Y686037D01*
G01X585326Y686558D01*
G01X585658Y687174D01*
G01X585895Y687884D01*
G01X586652Y690535D01*
G01X586842Y691198D01*
G01X587220Y693092D01*
G01X587528Y695578D01*
G01X587505Y696691D01*
G01X587339Y697661D01*
G01X587203Y698093D01*
G01X586273Y699910D01*
G01X585516Y701142D01*
G01X585066Y701686D01*
G01X584474Y702183D01*
G01X583740Y702633D01*
G01X582864Y703035D01*
G01X580237Y704172D01*
G01X579455Y704551D01*
G01X579113Y704642D01*
G01X577515Y704808D01*
G01X558931Y705234D01*
G01X537410Y705308D01*
G01X496880Y705308D01*
G01X497259Y702657D01*
G01X497387Y701423D01*
G01X497584Y696679D01*
G01X497637Y690535D01*
G01X497543Y686321D01*
G01X497387Y684217D01*
G01X497210Y682826D01*
G01X496921Y681454D01*
G01X496637Y680649D01*
G01X496477Y680344D01*
G01X496306Y680104D01*
G01X495317Y679432D01*
G01X494418Y679077D01*
G01X493423Y678864D01*
G01X492334Y678793D01*
G01X491269Y678864D01*
G01X490346Y679077D01*
G01X489937Y679237D01*
G01X489564Y679432D01*
G01X489227Y679663D01*
G01X488925Y679929D01*
G01X488659Y680385D01*
G01X488428Y681184D01*
G01X488233Y682326D01*
G01X487948Y685641D01*
G01X487789Y693187D01*
G01X487789Y705308D01*
G01X452183Y705308D01*
G01X451739Y707658D01*
G01X451733Y708078D01*
G01X451786Y708463D01*
G01X451899Y708812D01*
G01X452070Y709126D01*
G01X452301Y709404D01*
G01X452591Y709647D01*
G01X452940Y709854D01*
G01X454183Y710422D01*
G01X456728Y711369D01*
G01X457770Y711748D01*
G01X458977Y712316D01*
G01X459545Y712695D01*
G01X460185Y713239D01*
G01X460705Y713547D01*
G01X461321Y713807D01*
G01X463452Y714494D01*
G01X464683Y715157D01*
G01X466008Y715914D01*
G01X468589Y717051D01*
G01X469637Y717619D01*
G01X470158Y717998D01*
G01X471714Y719323D01*
G01X473300Y720460D01*
G01X475099Y722069D01*
G01X477135Y723679D01*
G01X478272Y724816D01*
G01X479100Y725905D01*
G01X479550Y726331D01*
G01X480047Y726662D01*
G01X481136Y727136D01*
G01X481634Y727467D01*
G01X482083Y727893D01*
G01X482888Y728959D01*
G01X483835Y729906D01*
G01X484900Y730711D01*
G01X485327Y731160D01*
G01X485658Y731657D01*
G01X486108Y732747D01*
G01X486368Y733244D01*
G01X486676Y733693D01*
G01X487410Y734498D01*
G01X488546Y735990D01*
G01X490062Y738263D01*
G01X490819Y739588D01*
G01X491784Y741743D01*
G01X492026Y742145D01*
G01X492305Y742500D01*
G01X492618Y742808D01*
G01X492968Y743068D01*
G01X493352Y743281D01*
G01X493772Y743447D01*
G01X494228Y743566D01*
G01X494684Y743631D01*
G01X495104Y743637D01*
G01X495489Y743583D01*
G01X495838Y743471D01*
G01X496152Y743299D01*
G01X496430Y743068D01*
G01X496673Y742779D01*
G01X496880Y742429D01*
G01X497057Y741974D01*
G01X497341Y740601D01*
G01X497531Y738612D01*
G01X497637Y734475D01*
G01X497543Y729456D01*
G01X497387Y727762D01*
G01X497304Y727395D01*
G01X497448Y726615D01*
G01X498774Y726142D01*
G01X499166Y726096D01*
G01X508043Y725882D01*
G01X542334Y725763D01*
G01X582249Y725337D01*
G01X584510Y725183D01*
G01X585286Y725074D01*
G01X586273Y724650D01*
G01X587789Y724082D01*
G01X589327Y723632D01*
G01X590156Y723301D01*
G01X591032Y722874D01*
G01X591955Y722354D01*
G01X594986Y720460D01*
G01X595554Y720010D01*
G01X596122Y719418D01*
G01X596690Y718684D01*
G01X597258Y717808D01*
G01X598750Y715180D01*
G01X599152Y714399D01*
G01X600099Y712357D01*
G01X601591Y708788D01*
G01X601804Y708338D01*
G01X601969Y707770D01*
G01X602088Y706823D01*
G01X602182Y703793D01*
G01X602129Y701325D01*
G01X602035Y700094D01*
G01X601850Y699021D01*
G01X600667Y695838D01*
G01X600099Y694525D01*
G01X599342Y693104D01*
G01X598395Y691577D01*
G01X597235Y689446D01*
G01X596785Y688831D01*
G01X596288Y688310D01*
G01X595199Y687481D01*
G01X594252Y686535D01*
G01X592997Y684948D01*
G01X591955Y684096D01*
G01X590464Y682960D01*
G01X589611Y682178D01*
G01X589020Y681729D01*
G01X587410Y680687D01*
G01X585989Y679888D01*
G01X584569Y679195D01*
G01X582308Y678225D01*
G01X580888Y677467D01*
G01X580047Y676970D01*
G01X579550Y676804D01*
G37*
G36*
G01X559220Y754864D02*
G01X558740Y754858D01*
G01X558320Y754912D01*
G01X557959Y755024D01*
G01X557657Y755196D01*
G01X557415Y755426D01*
G01X557231Y755716D01*
G01X557107Y756066D01*
G01X557012Y756776D01*
G01X557107Y757391D01*
G01X557391Y757912D01*
G01X557865Y758338D01*
G01X559190Y759096D01*
G01X562315Y760475D01*
G01X563736Y761203D01*
G01X567311Y763239D01*
G01X569417Y764399D01*
G01X570163Y764967D01*
G01X571714Y766293D01*
G01X572803Y767074D01*
G01X573750Y768021D01*
G01X575004Y769607D01*
G01X576046Y770459D01*
G01X576591Y770886D01*
G01X577088Y771406D01*
G01X577538Y772022D01*
G01X578698Y774058D01*
G01X579266Y774804D01*
G01X579834Y775455D01*
G01X580592Y776781D01*
G01X581539Y778971D01*
G01X582296Y780391D01*
G01X582841Y781350D01*
G01X583148Y782202D01*
G01X583409Y783244D01*
G01X584001Y786747D01*
G01X584468Y788594D01*
G01X584664Y790156D01*
G01X584752Y792571D01*
G01X584758Y793566D01*
G01X584686Y796631D01*
G01X584508Y798336D01*
G01X584380Y798869D01*
G01X583243Y802278D01*
G01X582675Y803822D01*
G01X581917Y805385D01*
G01X580970Y806918D01*
G01X579787Y809120D01*
G01X579266Y809948D01*
G01X577940Y811747D01*
G01X577206Y812623D01*
G01X576520Y813357D01*
G01X575579Y814192D01*
G01X574247Y815156D01*
G01X572992Y816293D01*
G01X571501Y817429D01*
G01X569228Y818944D01*
G01X567902Y819702D01*
G01X564884Y821028D01*
G01X563463Y821785D01*
G01X561842Y822732D01*
G01X560137Y823490D01*
G01X556533Y824815D01*
G01X555970Y825005D01*
G01X551046Y826520D01*
G01X548951Y827035D01*
G01X546643Y827443D01*
G01X538925Y828414D01*
G01X536723Y828645D01*
G01X533125Y828787D01*
G01X532107Y828793D01*
G01X529041Y828720D01*
G01X527337Y828543D01*
G01X526804Y828414D01*
G01X525478Y828130D01*
G01X522874Y828012D01*
G01X521359Y827822D01*
G01X516955Y826520D01*
G01X515126Y825952D01*
G01X513617Y825384D01*
G01X510747Y824058D01*
G01X508456Y823087D01*
G01X507580Y822637D01*
G01X506752Y822140D01*
G01X503319Y819702D01*
G01X502277Y818850D01*
G01X501023Y817263D01*
G01X500076Y816316D01*
G01X498987Y815488D01*
G01X498489Y814967D01*
G01X498040Y814351D01*
G01X496880Y812221D01*
G01X495933Y810682D01*
G01X495365Y809475D01*
G01X494986Y808433D01*
G01X494607Y807202D01*
G01X494145Y805373D01*
G01X493956Y804331D01*
G01X493826Y802301D01*
G01X493636Y800976D01*
G01X493305Y799768D01*
G01X493116Y798253D01*
G01X493116Y796454D01*
G01X493305Y794939D01*
G01X494607Y790914D01*
G01X495009Y789872D01*
G01X495459Y789020D01*
G01X495956Y788357D01*
G01X496223Y788097D01*
G01X497045Y787481D01*
G01X497992Y786534D01*
G01X498821Y785469D01*
G01X499342Y785043D01*
G01X499957Y784711D01*
G01X501425Y784262D01*
G01X502940Y783693D01*
G01X504479Y783007D01*
G01X505308Y782770D01*
G01X506184Y782628D01*
G01X508007Y782557D01*
G01X509522Y782368D01*
G01X510776Y782012D01*
G01X512481Y781634D01*
G01X514659Y781184D01*
G01X515724Y780782D01*
G01X516742Y780237D01*
G01X517713Y779550D01*
G01X518589Y778769D01*
G01X519323Y777941D01*
G01X519915Y777065D01*
G01X520364Y776141D01*
G01X520879Y774721D01*
G01X521288Y773300D01*
G01X521501Y772354D01*
G01X522259Y768566D01*
G01X522436Y767252D01*
G01X522436Y766494D01*
G01X522341Y765831D01*
G01X522259Y765535D01*
G01X521122Y762505D01*
G01X520720Y761653D01*
G01X520270Y760990D01*
G01X520027Y760729D01*
G01X519773Y760516D01*
G01X519506Y760351D01*
G01X518684Y760019D01*
G01X518186Y759759D01*
G01X517737Y759451D01*
G01X516884Y758741D01*
G01X516293Y758433D01*
G01X515559Y758173D01*
G01X514683Y757960D01*
G01X512694Y757675D01*
G01X510516Y757581D01*
G01X508918Y757687D01*
G01X507971Y757877D01*
G01X507119Y758161D01*
G01X504686Y759285D01*
G01X502443Y760256D01*
G01X501709Y760706D01*
G01X501117Y761203D01*
G01X500668Y761748D01*
G01X500265Y762268D01*
G01X499815Y762694D01*
G01X499318Y763026D01*
G01X498229Y763499D01*
G01X497732Y763831D01*
G01X497282Y764257D01*
G01X496477Y765322D01*
G01X495530Y766269D01*
G01X494465Y767074D01*
G01X494039Y767524D01*
G01X493707Y768021D01*
G01X493234Y769157D01*
G01X492476Y770483D01*
G01X491156Y772354D01*
G01X490464Y773490D01*
G01X490062Y774247D01*
G01X489115Y776289D01*
G01X488546Y777657D01*
G01X487221Y781350D01*
G01X486842Y783244D01*
G01X486274Y786747D01*
G01X485895Y788263D01*
G01X485806Y788641D01*
G01X485664Y789967D01*
G01X485522Y794891D01*
G01X485516Y796596D01*
G01X485623Y802532D01*
G01X485806Y804550D01*
G01X486084Y805568D01*
G01X486463Y807273D01*
G01X486865Y809427D01*
G01X487126Y810422D01*
G01X487434Y811321D01*
G01X488736Y814168D01*
G01X489872Y816849D01*
G01X490630Y818270D01*
G01X491577Y819796D01*
G01X492760Y821998D01*
G01X493281Y822827D01*
G01X494607Y824626D01*
G01X496454Y827041D01*
G01X497282Y828201D01*
G01X498229Y829148D01*
G01X499815Y830403D01*
G01X501070Y831989D01*
G01X502017Y832936D01*
G01X503603Y834190D01*
G01X504455Y835232D01*
G01X504858Y835753D01*
G01X505308Y836179D01*
G01X505805Y836511D01*
G01X506941Y836984D01*
G01X508267Y837742D01*
G01X510137Y839061D01*
G01X511274Y839754D01*
G01X513452Y840914D01*
G01X515298Y842050D01*
G01X516008Y842429D01*
G01X517713Y843187D01*
G01X521317Y844512D01*
G01X521880Y844702D01*
G01X526804Y846217D01*
G01X528899Y846732D01*
G01X531207Y847140D01*
G01X538925Y848111D01*
G01X541233Y848342D01*
G01X545305Y848484D01*
G01X546501Y848490D01*
G01X550084Y848417D01*
G01X552002Y848240D01*
G01X552562Y848111D01*
G01X553201Y847945D01*
G01X554905Y847756D01*
G01X557959Y847637D01*
G01X559078Y847442D01*
G01X560019Y847164D01*
G01X561723Y846785D01*
G01X564777Y846217D01*
G01X569607Y844702D01*
G01X571690Y843944D01*
G01X575436Y842240D01*
G01X577727Y841269D01*
G01X578603Y840819D01*
G01X579432Y840322D01*
G01X582864Y837884D01*
G01X584995Y836321D01*
G01X588309Y833764D01*
G01X589469Y832936D01*
G01X590416Y831989D01*
G01X592381Y829314D01*
G01X593092Y828414D01*
G01X594690Y826490D01*
G01X596216Y824721D01*
G01X597258Y823111D01*
G01X598057Y821691D01*
G01X598750Y820270D01*
G01X599720Y818009D01*
G01X600478Y816589D01*
G01X601022Y815653D01*
G01X601330Y814872D01*
G01X601591Y813949D01*
G01X602182Y810895D01*
G01X603319Y807202D01*
G01X603485Y806397D01*
G01X603603Y805119D01*
G01X603698Y801141D01*
G01X603625Y797558D01*
G01X603448Y795640D01*
G01X603129Y794441D01*
G01X602751Y792737D01*
G01X602182Y789683D01*
G01X601804Y788263D01*
G01X600667Y785232D01*
G01X600099Y783918D01*
G01X599342Y782498D01*
G01X598395Y780971D01*
G01X596879Y778225D01*
G01X596311Y777479D01*
G01X594986Y775928D01*
G01X593849Y774342D01*
G01X592713Y773087D01*
G01X591576Y771596D01*
G01X590724Y770554D01*
G01X589683Y769702D01*
G01X587552Y768139D01*
G01X582864Y764399D01*
G01X581917Y763689D01*
G01X580970Y763073D01*
G01X580023Y762552D01*
G01X577763Y761558D01*
G01X576342Y760800D01*
G01X574720Y759853D01*
G01X573016Y759096D01*
G01X569228Y757581D01*
G01X567145Y756823D01*
G01X564683Y756066D01*
G01X562126Y755403D01*
G01X559758Y754929D01*
G01X559220Y754864D01*
G37*
G36*
G01X583433Y857770D02*
G01X582344Y857628D01*
G01X580970Y857580D01*
G01X579692Y857652D01*
G01X579230Y857740D01*
G01X578887Y857865D01*
G01X578662Y858024D01*
G01X578568Y858451D01*
G01X578698Y858717D01*
G01X579550Y859759D01*
G01X581136Y861013D01*
G01X582083Y861960D01*
G01X583243Y863546D01*
G01X584403Y864849D01*
G01X584853Y865440D01*
G01X585895Y867050D01*
G01X586392Y867997D01*
G01X586747Y868944D01*
G01X586960Y869891D01*
G01X587031Y870838D01*
G01X587007Y871300D01*
G01X586936Y871738D01*
G01X586818Y872152D01*
G01X586652Y872543D01*
G01X586439Y872910D01*
G01X586179Y873253D01*
G01X585871Y873573D01*
G01X584711Y874413D01*
G01X583811Y874910D01*
G01X582817Y875360D01*
G01X581728Y875762D01*
G01X581325Y875854D01*
G01X579810Y876020D01*
G01X569583Y876375D01*
G01X546880Y876520D01*
G01X514387Y876785D01*
G01X513304Y876870D01*
G01X512505Y877065D01*
G01X511652Y877183D01*
G01X507604Y877331D01*
G01X506255Y877490D01*
G01X503674Y878225D01*
G01X502206Y878627D01*
G01X500881Y879195D01*
G01X500289Y879550D01*
G01X498016Y881065D01*
G01X495885Y882628D01*
G01X494986Y883338D01*
G01X494110Y884096D01*
G01X493062Y885232D01*
G01X492541Y885990D01*
G01X491577Y887789D01*
G01X490440Y889636D01*
G01X490062Y890346D01*
G01X489304Y892050D01*
G01X488168Y895081D01*
G01X487031Y898868D01*
G01X486570Y900697D01*
G01X486380Y901739D01*
G01X486250Y903769D01*
G01X486060Y905095D01*
G01X485806Y906083D01*
G01X485664Y907551D01*
G01X485516Y915156D01*
G01X485636Y922254D01*
G01X485806Y924229D01*
G01X486084Y925289D01*
G01X486463Y927183D01*
G01X486865Y929668D01*
G01X487126Y930781D01*
G01X487605Y932184D01*
G01X488452Y934096D01*
G01X489138Y936345D01*
G01X489706Y937670D01*
G01X491955Y941293D01*
G01X492524Y942169D01*
G01X493376Y943216D01*
G01X493944Y943737D01*
G01X494773Y944347D01*
G01X495720Y945294D01*
G01X496880Y946880D01*
G01X497637Y947732D01*
G01X498584Y948584D01*
G01X499910Y949626D01*
G01X501520Y950762D01*
G01X503319Y951899D01*
G01X504290Y952419D01*
G01X505308Y952845D01*
G01X506373Y953177D01*
G01X509474Y953793D01*
G01X510895Y954171D01*
G01X511558Y954337D01*
G01X512410Y954455D01*
G01X514683Y954550D01*
G01X515961Y954479D01*
G01X517145Y954266D01*
G01X518234Y953911D01*
G01X519228Y953414D01*
G01X520489Y952615D01*
G01X521673Y951715D01*
G01X522282Y951070D01*
G01X522732Y950478D01*
G01X523774Y948868D01*
G01X524271Y947874D01*
G01X524626Y946785D01*
G01X524839Y945601D01*
G01X524910Y944323D01*
G01X524839Y943044D01*
G01X524626Y941861D01*
G01X524271Y940772D01*
G01X523774Y939777D01*
G01X523182Y938878D01*
G01X522205Y937706D01*
G01X521495Y937043D01*
G01X520317Y936203D01*
G01X519418Y935706D01*
G01X518423Y935256D01*
G01X517334Y934853D01*
G01X515938Y934522D01*
G01X514020Y934285D01*
G01X510167Y934107D01*
G01X508622Y934096D01*
G01X505115Y934022D01*
G01X503509Y933906D01*
G01X502105Y933704D01*
G01X501531Y933556D01*
G01X501209Y933430D01*
G01X498774Y931823D01*
G01X497732Y930970D01*
G01X496880Y929929D01*
G01X495365Y927656D01*
G01X494607Y926330D01*
G01X493849Y924626D01*
G01X493518Y923655D01*
G01X493281Y922637D01*
G01X493139Y921572D01*
G01X493068Y919418D01*
G01X492944Y918210D01*
G01X492802Y917642D01*
G01X492571Y917026D01*
G01X492524Y916577D01*
G01X492571Y916079D01*
G01X492879Y914919D01*
G01X493068Y913404D01*
G01X493139Y911581D01*
G01X493281Y910706D01*
G01X493518Y909877D01*
G01X493849Y909096D01*
G01X494944Y907054D01*
G01X495743Y905687D01*
G01X496311Y904810D01*
G01X497164Y903763D01*
G01X497732Y903242D01*
G01X499508Y901899D01*
G01X500360Y901141D01*
G01X501686Y900384D01*
G01X502562Y900005D01*
G01X506917Y898490D01*
G01X508622Y898111D01*
G01X512410Y897353D01*
G01X513617Y897187D01*
G01X516405Y897028D01*
G01X520364Y896974D01*
G01X526425Y896974D01*
G01X526772Y898016D01*
G01X534474Y898016D01*
G01X534687Y897614D01*
G01X535137Y897353D01*
G01X535723Y897264D01*
G01X541103Y897069D01*
G01X541103Y897069D01*
G01X556728Y896974D01*
G01X571833Y897241D01*
G01X574929Y897464D01*
G01X576714Y897725D01*
G01X577153Y897845D01*
G01X577482Y898007D01*
G01X577774Y898655D01*
G01X578035Y899152D01*
G01X578343Y899602D01*
G01X579077Y900407D01*
G01X580213Y901899D01*
G01X581728Y904171D01*
G01X583622Y907202D01*
G01X584421Y908622D01*
G01X585113Y910043D01*
G01X586652Y913617D01*
G01X587386Y915275D01*
G01X587694Y916387D01*
G01X587954Y917737D01*
G01X588167Y919323D01*
G01X588330Y921232D01*
G01X588345Y922696D01*
G01X588250Y923549D01*
G01X588167Y923868D01*
G01X587789Y925194D01*
G01X587173Y927775D01*
G01X586842Y928508D01*
G01X586640Y928822D01*
G01X586415Y929100D01*
G01X586167Y929343D01*
G01X585374Y929953D01*
G01X584948Y930403D01*
G01X584616Y930900D01*
G01X584095Y932012D01*
G01X583622Y932580D01*
G01X582959Y933149D01*
G01X582107Y933717D01*
G01X579077Y935611D01*
G01X577656Y936368D01*
G01X575667Y937126D01*
G01X573910Y937641D01*
G01X572045Y938049D01*
G01X570743Y938262D01*
G01X568281Y938546D01*
G01X565298Y938617D01*
G01X563783Y938428D01*
G01X559758Y937126D01*
G01X558717Y936747D01*
G01X557509Y936179D01*
G01X556941Y935800D01*
G01X556326Y935232D01*
G01X554834Y934096D01*
G01X554242Y933646D01*
G01X553603Y933054D01*
G01X552917Y932320D01*
G01X551449Y930568D01*
G01X550762Y929834D01*
G01X549821Y929000D01*
G01X549010Y928390D01*
G01X548584Y927940D01*
G01X548253Y927443D01*
G01X547803Y926354D01*
G01X547542Y925857D01*
G01X547235Y925407D01*
G01X546501Y924579D01*
G01X545743Y923442D01*
G01X544607Y921312D01*
G01X543471Y919465D01*
G01X543092Y918755D01*
G01X541713Y915630D01*
G01X540985Y914209D01*
G01X539919Y912339D01*
G01X539493Y911463D01*
G01X539162Y910634D01*
G01X538452Y908338D01*
G01X537220Y905580D01*
G01X536274Y903035D01*
G01X535516Y900952D01*
G01X534758Y899247D01*
G01X534498Y898561D01*
G01X534474Y898016D01*
G01X526772Y898016D01*
G01X528698Y903793D01*
G01X529455Y905876D01*
G01X530781Y908823D01*
G01X531728Y911368D01*
G01X532486Y913452D01*
G01X533811Y916399D01*
G01X534758Y918944D01*
G01X535327Y920489D01*
G01X536084Y922051D01*
G01X536629Y922945D01*
G01X537197Y924271D01*
G01X537883Y926425D01*
G01X538546Y927656D01*
G01X539304Y928982D01*
G01X540630Y932000D01*
G01X541387Y933421D01*
G01X543471Y936747D01*
G01X545743Y940535D01*
G01X547637Y943565D01*
G01X549200Y945696D01*
G01X550644Y947472D01*
G01X551330Y948205D01*
G01X552271Y949040D01*
G01X553106Y949650D01*
G01X554053Y950597D01*
G01X554905Y951709D01*
G01X555497Y952277D01*
G01X556231Y952845D01*
G01X557107Y953414D01*
G01X561463Y956065D01*
G01X563168Y956823D01*
G01X564588Y957338D01*
G01X566008Y957746D01*
G01X566955Y957959D01*
G01X570743Y958717D01*
G01X572732Y959001D01*
G01X574910Y959096D01*
G01X576899Y959001D01*
G01X578017Y958806D01*
G01X578982Y958527D01*
G01X580876Y958148D01*
G01X583338Y957746D01*
G01X584829Y957338D01*
G01X585587Y957006D01*
G01X587220Y956065D01*
G01X589872Y954882D01*
G01X590819Y954361D01*
G01X591766Y953745D01*
G01X592713Y953035D01*
G01X593589Y952301D01*
G01X594323Y951615D01*
G01X595157Y950673D01*
G01X596122Y949342D01*
G01X597282Y948040D01*
G01X597732Y947448D01*
G01X598774Y945838D01*
G01X599318Y944867D01*
G01X599815Y943849D01*
G01X600265Y942784D01*
G01X601466Y939422D01*
G01X601804Y938641D01*
G01X601969Y937931D01*
G01X602088Y936558D01*
G01X602182Y931823D01*
G01X602088Y926993D01*
G01X601893Y924987D01*
G01X601804Y924626D01*
G01X600667Y921217D01*
G01X599910Y919134D01*
G01X598531Y916293D01*
G01X597803Y915156D01*
G01X591576Y906444D01*
G01X590014Y904313D01*
G01X586652Y900005D01*
G01X586179Y899271D01*
G01X586013Y898922D01*
G01X585895Y898584D01*
G01X585824Y898259D01*
G01X585800Y897945D01*
G01X585824Y897643D01*
G01X585895Y897353D01*
G01X586250Y896856D01*
G01X586936Y896501D01*
G01X587954Y896288D01*
G01X590724Y896169D01*
G01X592500Y895921D01*
G01X593447Y895637D01*
G01X593849Y895459D01*
G01X597590Y893542D01*
G01X598205Y893092D01*
G01X598726Y892595D01*
G01X599152Y892050D01*
G01X600667Y889777D01*
G01X601022Y889162D01*
G01X601330Y888452D01*
G01X601591Y887647D01*
G01X601804Y886747D01*
G01X601969Y885753D01*
G01X602088Y884664D01*
G01X602182Y882202D01*
G01X602129Y880426D01*
G01X601969Y879077D01*
G01X601804Y878414D01*
G01X600667Y875384D01*
G01X599910Y873774D01*
G01X599531Y873182D01*
G01X598750Y872282D01*
G01X598300Y871690D01*
G01X596690Y869205D01*
G01X595838Y868157D01*
G01X595270Y867636D01*
G01X594441Y867026D01*
G01X593494Y866080D01*
G01X592239Y864493D01*
G01X590653Y863239D01*
G01X589706Y862292D01*
G01X588878Y861203D01*
G01X588357Y860706D01*
G01X587741Y860256D01*
G01X585705Y859096D01*
G01X584959Y858528D01*
G01X584758Y858338D01*
G01X584238Y858007D01*
G01X583433Y857770D01*
G37*
G36*
G01X466435Y956846D02*
G01X464304Y956823D01*
G01X456313Y956956D01*
G01X454485Y957113D01*
G01X454156Y957178D01*
G01X453343Y957367D01*
G01X452277Y957486D01*
G01X449153Y957580D01*
G01X446684Y957634D01*
G01X445454Y957728D01*
G01X444381Y957913D01*
G01X443897Y958048D01*
G01X442334Y958243D01*
G01X439920Y958332D01*
G01X434759Y958338D01*
G01X434759Y1093944D01*
G01X440819Y1093944D01*
G01X445649Y1094038D01*
G01X447655Y1094234D01*
G01X448016Y1094322D01*
G01X448892Y1094488D01*
G01X450384Y1094607D01*
G01X460043Y1094796D01*
G01X462049Y1094991D01*
G01X462410Y1095080D01*
G01X463144Y1095246D01*
G01X464209Y1095364D01*
G01X467334Y1095459D01*
G01X469749Y1095512D01*
G01X471110Y1095638D01*
G01X471643Y1095749D01*
G01X472543Y1095648D01*
G01X473016Y1094322D01*
G01X473194Y1093062D01*
G01X473194Y1092399D01*
G01X473158Y1092121D01*
G01X473016Y1091671D01*
G01X472637Y1091316D01*
G01X471880Y1091008D01*
G01X470743Y1090748D01*
G01X467642Y1090322D01*
G01X465707Y1089913D01*
G01X464712Y1089582D01*
G01X462694Y1088735D01*
G01X460427Y1088155D01*
G01X459528Y1087871D01*
G01X458675Y1087493D01*
G01X457871Y1087019D01*
G01X455876Y1085610D01*
G01X453201Y1083906D01*
G01X452153Y1083054D01*
G01X451632Y1082486D01*
G01X448987Y1078768D01*
G01X448490Y1077940D01*
G01X448040Y1077064D01*
G01X447637Y1076141D01*
G01X447282Y1075146D01*
G01X446974Y1074057D01*
G01X446714Y1072874D01*
G01X446501Y1071595D01*
G01X446270Y1069553D01*
G01X446146Y1067405D01*
G01X446069Y1063907D01*
G01X445909Y1062433D01*
G01X445743Y1061747D01*
G01X445655Y1061309D01*
G01X445513Y1059510D01*
G01X445365Y1049626D01*
G01X445365Y1038641D01*
G01X513925Y1038641D01*
G01X582929Y1038957D01*
G01X583552Y1039005D01*
G01X587575Y1040351D01*
G01X588523Y1040777D01*
G01X589280Y1041251D01*
G01X589588Y1041505D01*
G01X589848Y1041772D01*
G01X590440Y1042571D01*
G01X590819Y1042997D01*
G01X591198Y1043328D01*
G01X591955Y1043849D01*
G01X592334Y1044323D01*
G01X592713Y1044985D01*
G01X593092Y1045838D01*
G01X594607Y1049626D01*
G01X594938Y1050762D01*
G01X595175Y1052277D01*
G01X595317Y1054171D01*
G01X595364Y1056444D01*
G01X595364Y1061368D01*
G01X598134Y1061865D01*
G01X598868Y1061841D01*
G01X599182Y1061776D01*
G01X599460Y1061676D01*
G01X599703Y1061540D01*
G01X599910Y1061368D01*
G01X600087Y1060658D01*
G01X600371Y1056112D01*
G01X600667Y1026520D01*
G01X600667Y992429D01*
G01X598774Y992050D01*
G01X597513Y991873D01*
G01X596850Y991873D01*
G01X596572Y991908D01*
G01X596122Y992050D01*
G01X595791Y992571D01*
G01X595554Y993754D01*
G01X595412Y995601D01*
G01X595290Y1001255D01*
G01X595175Y1002751D01*
G01X594938Y1004290D01*
G01X594699Y1005102D01*
G01X593092Y1008338D01*
G01X592666Y1009072D01*
G01X592145Y1009758D01*
G01X591529Y1010398D01*
G01X590819Y1010989D01*
G01X590038Y1011534D01*
G01X589209Y1012031D01*
G01X588333Y1012481D01*
G01X587410Y1012883D01*
G01X586415Y1013239D01*
G01X585326Y1013546D01*
G01X584143Y1013806D01*
G01X582864Y1014020D01*
G01X580823Y1014250D01*
G01X578674Y1014375D01*
G01X575176Y1014452D01*
G01X573702Y1014611D01*
G01X573016Y1014777D01*
G01X572634Y1014823D01*
G01X509380Y1015156D01*
G01X450748Y1014537D01*
G01X447631Y1014324D01*
G01X446534Y1014174D01*
G01X446210Y1014081D01*
G01X445945Y1013552D01*
G01X445791Y1012718D01*
G01X445554Y1009948D01*
G01X445365Y1000005D01*
G01X445536Y987999D01*
G01X445676Y986306D01*
G01X445732Y986028D01*
G01X445909Y985374D01*
G01X446098Y983859D01*
G01X446217Y981255D01*
G01X446412Y980225D01*
G01X446501Y979929D01*
G01X447637Y976898D01*
G01X448206Y975585D01*
G01X448963Y974164D01*
G01X450668Y971595D01*
G01X451520Y970554D01*
G01X452562Y969702D01*
G01X454053Y968565D01*
G01X454905Y967784D01*
G01X455497Y967334D01*
G01X457107Y966292D01*
G01X458078Y965748D01*
G01X459096Y965251D01*
G01X460161Y964801D01*
G01X461274Y964399D01*
G01X466198Y962883D01*
G01X468027Y962422D01*
G01X469068Y962232D01*
G01X470365Y962126D01*
G01X471075Y962055D01*
G01X471690Y961842D01*
G01X472211Y961487D01*
G01X472637Y960989D01*
G01X472969Y960398D01*
G01X473206Y959758D01*
G01X473348Y959072D01*
G01X473395Y958338D01*
G01X473253Y957983D01*
G01X472827Y957675D01*
G01X472116Y957415D01*
G01X471122Y957202D01*
G01X469844Y957036D01*
G01X466435Y956846D01*
G37*
G36*
G01X525324Y1113031D02*
G01X515440Y1112883D01*
G01X505556Y1113031D01*
G01X503619Y1113194D01*
G01X502680Y1113451D01*
G01X500975Y1113830D01*
G01X497921Y1114398D01*
G01X495838Y1114967D01*
G01X493944Y1115345D01*
G01X491458Y1115748D01*
G01X490346Y1116008D01*
G01X488943Y1116487D01*
G01X487718Y1117050D01*
G01X486209Y1117618D01*
G01X483101Y1118589D01*
G01X481918Y1119038D01*
G01X480829Y1119535D01*
G01X478520Y1120826D01*
G01X477100Y1121489D01*
G01X475668Y1122069D01*
G01X473916Y1123110D01*
G01X473206Y1123489D01*
G01X470625Y1124625D01*
G01X469577Y1125194D01*
G01X469056Y1125573D01*
G01X467500Y1126898D01*
G01X462410Y1130307D01*
G01X461368Y1131160D01*
G01X460114Y1132746D01*
G01X459167Y1133693D01*
G01X457580Y1134947D01*
G01X456326Y1136534D01*
G01X455379Y1137481D01*
G01X454266Y1138333D01*
G01X453698Y1138925D01*
G01X453130Y1139659D01*
G01X451763Y1141795D01*
G01X450863Y1142979D01*
G01X449531Y1144535D01*
G01X447637Y1147353D01*
G01X446880Y1148678D01*
G01X445743Y1151259D01*
G01X445175Y1152307D01*
G01X444796Y1152827D01*
G01X444228Y1153508D01*
G01X443850Y1154171D01*
G01X443471Y1155023D01*
G01X442334Y1158148D01*
G01X441222Y1160658D01*
G01X440914Y1161557D01*
G01X440653Y1162552D01*
G01X440227Y1164706D01*
G01X439819Y1166038D01*
G01X439488Y1166748D01*
G01X438973Y1167665D01*
G01X438736Y1168375D01*
G01X438594Y1169180D01*
G01X438523Y1170980D01*
G01X438333Y1172495D01*
G01X437978Y1173773D01*
G01X437600Y1175667D01*
G01X437031Y1179171D01*
G01X436487Y1181325D01*
G01X436297Y1183030D01*
G01X436179Y1186084D01*
G01X435984Y1187202D01*
G01X435806Y1187848D01*
G01X435611Y1189587D01*
G01X435444Y1197148D01*
G01X435266Y1199066D01*
G01X435137Y1199625D01*
G01X435092Y1199917D01*
G01X434938Y1204072D01*
G01X434926Y1206444D01*
G01X444039Y1206444D01*
G01X444086Y1205402D01*
G01X444459Y1202129D01*
G01X444583Y1199980D01*
G01X444654Y1197068D01*
G01X444903Y1195293D01*
G01X445187Y1194346D01*
G01X445696Y1193186D01*
G01X445933Y1192428D01*
G01X446075Y1191671D01*
G01X446146Y1190179D01*
G01X446335Y1188854D01*
G01X446880Y1186936D01*
G01X447472Y1184332D01*
G01X447880Y1183160D01*
G01X448211Y1182497D01*
G01X448750Y1181609D01*
G01X449318Y1180283D01*
G01X450005Y1178129D01*
G01X450668Y1176898D01*
G01X451425Y1175572D01*
G01X452562Y1172992D01*
G01X453130Y1171944D01*
G01X453509Y1171423D01*
G01X454550Y1170175D01*
G01X456391Y1167304D01*
G01X457290Y1166120D01*
G01X458622Y1164564D01*
G01X459403Y1163475D01*
G01X460350Y1162528D01*
G01X461937Y1161273D01*
G01X462789Y1160231D01*
G01X463239Y1159663D01*
G01X463830Y1159095D01*
G01X464564Y1158527D01*
G01X466316Y1157391D01*
G01X467364Y1156538D01*
G01X467885Y1155970D01*
G01X468542Y1155141D01*
G01X469133Y1154644D01*
G01X469867Y1154195D01*
G01X471619Y1153390D01*
G01X472353Y1152940D01*
G01X472945Y1152443D01*
G01X473395Y1151898D01*
G01X473845Y1151377D01*
G01X474436Y1150951D01*
G01X475171Y1150620D01*
G01X477307Y1150046D01*
G01X477970Y1149761D01*
G01X478491Y1149430D01*
G01X479172Y1148868D01*
G01X479834Y1148489D01*
G01X480687Y1148110D01*
G01X483273Y1147163D01*
G01X484835Y1146406D01*
G01X485777Y1145861D01*
G01X486558Y1145553D01*
G01X487481Y1145293D01*
G01X490535Y1144701D01*
G01X495365Y1143186D01*
G01X496572Y1142831D01*
G01X497921Y1142523D01*
G01X500212Y1142150D01*
G01X501046Y1142050D01*
G01X504839Y1141708D01*
G01X507391Y1141576D01*
G01X508622Y1141292D01*
G01X509036Y1141203D01*
G01X509036Y1141203D01*
G01X510646Y1141061D01*
G01X519228Y1140913D01*
G01X527536Y1141047D01*
G01X529420Y1141203D01*
G01X529755Y1141269D01*
G01X530473Y1141458D01*
G01X532178Y1141647D01*
G01X535232Y1141766D01*
G01X536350Y1141961D01*
G01X537978Y1142429D01*
G01X541387Y1143186D01*
G01X546501Y1144701D01*
G01X549519Y1145648D01*
G01X551046Y1146216D01*
G01X554834Y1147732D01*
G01X556255Y1148353D01*
G01X557675Y1149081D01*
G01X558622Y1149625D01*
G01X562410Y1151898D01*
G01X563830Y1152804D01*
G01X566198Y1154550D01*
G01X569986Y1157580D01*
G01X570861Y1158314D01*
G01X571596Y1159000D01*
G01X572430Y1159942D01*
G01X573039Y1160776D01*
G01X573987Y1161723D01*
G01X575573Y1162978D01*
G01X576425Y1164019D01*
G01X577987Y1166150D01*
G01X580544Y1169465D01*
G01X580970Y1170080D01*
G01X581728Y1171311D01*
G01X583243Y1174152D01*
G01X584380Y1175998D01*
G01X584758Y1176709D01*
G01X586652Y1181041D01*
G01X587386Y1182604D01*
G01X587954Y1184308D01*
G01X588546Y1186936D01*
G01X589304Y1189587D01*
G01X589683Y1191292D01*
G01X590440Y1195837D01*
G01X590724Y1198394D01*
G01X590843Y1201827D01*
G01X591032Y1203532D01*
G01X591198Y1204171D01*
G01X591363Y1204834D01*
G01X591482Y1205686D01*
G01X591576Y1207959D01*
G01X591553Y1209142D01*
G01X591429Y1210385D01*
G01X591363Y1210657D01*
G01X591198Y1210989D01*
G01X591032Y1211439D01*
G01X590913Y1212409D01*
G01X590819Y1215913D01*
G01X590746Y1219238D01*
G01X590569Y1221049D01*
G01X590440Y1221595D01*
G01X590156Y1222921D01*
G01X590038Y1225525D01*
G01X589848Y1227040D01*
G01X589114Y1229573D01*
G01X588925Y1230307D01*
G01X588604Y1230491D01*
G01X587735Y1230662D01*
G01X584356Y1230970D01*
G01X542048Y1231769D01*
G01X518092Y1231822D01*
G01X447637Y1231822D01*
G01X447259Y1229171D01*
G01X446501Y1224625D01*
G01X445879Y1221962D01*
G01X445365Y1220080D01*
G01X445033Y1218659D01*
G01X444796Y1217050D01*
G01X444654Y1215250D01*
G01X444535Y1210196D01*
G01X444357Y1208491D01*
G01X444228Y1207959D01*
G01X444086Y1207296D01*
G01X444039Y1206444D01*
G01X434926Y1206444D01*
G01X434759Y1240156D01*
G01X434759Y1279549D01*
G01X439304Y1279549D01*
G01X439683Y1276898D01*
G01X439914Y1274696D01*
G01X440056Y1271098D01*
G01X440109Y1268162D01*
G01X440301Y1266231D01*
G01X440562Y1265059D01*
G01X440727Y1264598D01*
G01X441577Y1262977D01*
G01X442334Y1261747D01*
G01X443281Y1260610D01*
G01X444607Y1259474D01*
G01X445412Y1258929D01*
G01X446312Y1258432D01*
G01X447306Y1257982D01*
G01X448395Y1257580D01*
G01X449602Y1257225D01*
G01X450952Y1256917D01*
G01X453242Y1256544D01*
G01X454077Y1256444D01*
G01X457419Y1256315D01*
G01X519607Y1256065D01*
G01X582115Y1256376D01*
G01X582797Y1256429D01*
G01X584190Y1256822D01*
G01X586818Y1257438D01*
G01X587694Y1257769D01*
G01X588523Y1258195D01*
G01X589304Y1258716D01*
G01X590630Y1259758D01*
G01X591576Y1260610D01*
G01X591955Y1261060D01*
G01X592713Y1262386D01*
G01X593092Y1263262D01*
G01X594417Y1266866D01*
G01X594784Y1268032D01*
G01X594938Y1268707D01*
G01X595175Y1270269D01*
G01X595317Y1272116D01*
G01X595364Y1274246D01*
G01X595364Y1278792D01*
G01X598134Y1279289D01*
G01X598868Y1279265D01*
G01X599182Y1279200D01*
G01X599460Y1279100D01*
G01X599703Y1278963D01*
G01X599910Y1278792D01*
G01X600002Y1278539D01*
G01X600087Y1277969D01*
G01X600309Y1274360D01*
G01X600667Y1236747D01*
G01X600383Y1195332D01*
G01X600312Y1194432D01*
G01X600099Y1193660D01*
G01X599720Y1191765D01*
G01X599531Y1190534D01*
G01X599247Y1188072D01*
G01X599129Y1185089D01*
G01X598939Y1183574D01*
G01X598608Y1182367D01*
G01X598418Y1181041D01*
G01X598347Y1179550D01*
G01X598205Y1178792D01*
G01X597969Y1178034D01*
G01X597460Y1176898D01*
G01X597175Y1176141D01*
G01X596986Y1175383D01*
G01X596891Y1174625D01*
G01X596785Y1172826D01*
G01X596122Y1170269D01*
G01X595530Y1167665D01*
G01X595122Y1166493D01*
G01X594790Y1165831D01*
G01X594252Y1164919D01*
G01X593944Y1164209D01*
G01X593684Y1163404D01*
G01X593257Y1161604D01*
G01X592849Y1160433D01*
G01X592517Y1159770D01*
G01X591576Y1158148D01*
G01X590197Y1155023D01*
G01X589469Y1153603D01*
G01X587433Y1150028D01*
G01X586410Y1148110D01*
G01X585682Y1146974D01*
G01X583243Y1143565D01*
G01X581681Y1141434D01*
G01X580237Y1139659D01*
G01X579550Y1138925D01*
G01X578609Y1138090D01*
G01X577774Y1137481D01*
G01X576827Y1136534D01*
G01X575573Y1134947D01*
G01X574531Y1134095D01*
G01X573039Y1132959D01*
G01X571288Y1131444D01*
G01X570199Y1130662D01*
G01X569252Y1129716D01*
G01X568447Y1128650D01*
G01X567997Y1128224D01*
G01X567500Y1127893D01*
G01X566363Y1127419D01*
G01X565038Y1126661D01*
G01X563168Y1125342D01*
G01X562031Y1124649D01*
G01X559853Y1123489D01*
G01X558007Y1122353D01*
G01X557296Y1121974D01*
G01X554278Y1120648D01*
G01X552857Y1119891D01*
G01X551946Y1119346D01*
G01X551236Y1119038D01*
G01X550431Y1118778D01*
G01X548631Y1118352D01*
G01X547460Y1117943D01*
G01X546797Y1117612D01*
G01X545838Y1117073D01*
G01X544986Y1116766D01*
G01X543944Y1116505D01*
G01X540440Y1115913D01*
G01X538925Y1115534D01*
G01X535516Y1114398D01*
G01X534380Y1114067D01*
G01X533243Y1113830D01*
G01X532107Y1113688D01*
G01X529905Y1113617D01*
G01X528201Y1113428D01*
G01X527562Y1113262D01*
G01X527123Y1113173D01*
G01X525324Y1113031D01*
G37*
G36*
G01X509960Y1294849D02*
G01X498774Y1294701D01*
G01X487261Y1294864D01*
G01X485450Y1295012D01*
G01X485176Y1295068D01*
G01X483812Y1295458D01*
G01X482107Y1295837D01*
G01X478319Y1296595D01*
G01X476899Y1296932D01*
G01X475478Y1297376D01*
G01X472448Y1298489D01*
G01X468210Y1299815D01*
G01X466861Y1300383D01*
G01X465583Y1301140D01*
G01X464872Y1301519D01*
G01X461854Y1302845D01*
G01X460433Y1303602D01*
G01X457107Y1305686D01*
G01X455687Y1306591D01*
G01X453319Y1308337D01*
G01X450904Y1310184D01*
G01X448158Y1312172D01*
G01X446383Y1313617D01*
G01X445649Y1314303D01*
G01X444814Y1315244D01*
G01X444205Y1316079D01*
G01X443258Y1317026D01*
G01X442192Y1317830D01*
G01X441766Y1318280D01*
G01X441435Y1318778D01*
G01X440985Y1319867D01*
G01X440725Y1320364D01*
G01X440417Y1320813D01*
G01X439209Y1322258D01*
G01X438168Y1323868D01*
G01X436676Y1326495D01*
G01X436274Y1327276D01*
G01X435327Y1329318D01*
G01X434759Y1330686D01*
G01X433243Y1335042D01*
G01X432243Y1339410D01*
G01X431728Y1341292D01*
G01X431397Y1342736D01*
G01X431160Y1344417D01*
G01X431018Y1346334D01*
G01X430971Y1348489D01*
G01X431015Y1350424D01*
G01X439505Y1350424D01*
G01X439505Y1349382D01*
G01X439683Y1347731D01*
G01X440440Y1343564D01*
G01X440914Y1341765D01*
G01X441577Y1340155D01*
G01X442334Y1338735D01*
G01X444607Y1335231D01*
G01X445459Y1334189D01*
G01X447046Y1332935D01*
G01X447993Y1331988D01*
G01X448845Y1330899D01*
G01X449436Y1330402D01*
G01X450171Y1329952D01*
G01X451922Y1329171D01*
G01X452970Y1328602D01*
G01X453491Y1328224D01*
G01X454124Y1327655D01*
G01X455260Y1326898D01*
G01X455971Y1326519D01*
G01X458013Y1325572D01*
G01X459380Y1325004D01*
G01X469228Y1321595D01*
G01X470554Y1321216D01*
G01X472259Y1320837D01*
G01X476046Y1320080D01*
G01X478710Y1319458D01*
G01X480592Y1318943D01*
G01X482012Y1318612D01*
G01X483622Y1318375D01*
G01X485421Y1318233D01*
G01X490476Y1318113D01*
G01X492180Y1317936D01*
G01X492713Y1317807D01*
G01X493328Y1317665D01*
G01X493328Y1317665D01*
G01X494039Y1317618D01*
G01X494844Y1317665D01*
G01X496880Y1317973D01*
G01X499294Y1318132D01*
G01X506145Y1318258D01*
G01X508063Y1318436D01*
G01X508622Y1318565D01*
G01X509332Y1318754D01*
G01X511605Y1319133D01*
G01X516404Y1319748D01*
G01X518092Y1320080D01*
G01X518778Y1320316D01*
G01X519323Y1320648D01*
G01X519725Y1321074D01*
G01X520222Y1322187D01*
G01X520980Y1323512D01*
G01X522448Y1325667D01*
G01X522910Y1326608D01*
G01X523489Y1328034D01*
G01X524507Y1329786D01*
G01X524815Y1330496D01*
G01X525076Y1331301D01*
G01X525502Y1333100D01*
G01X525910Y1334272D01*
G01X526242Y1334935D01*
G01X526609Y1335551D01*
G01X526940Y1336403D01*
G01X527224Y1337539D01*
G01X527562Y1339777D01*
G01X527940Y1342618D01*
G01X528272Y1344171D01*
G01X528485Y1344938D01*
G01X528674Y1346453D01*
G01X528674Y1348205D01*
G01X528603Y1348868D01*
G01X528485Y1349341D01*
G01X528319Y1349625D01*
G01X528153Y1349909D01*
G01X528035Y1350383D01*
G01X527922Y1352371D01*
G01X527781Y1353318D01*
G01X527496Y1354265D01*
G01X527070Y1355212D01*
G01X525312Y1358314D01*
G01X524152Y1360420D01*
G01X523584Y1361166D01*
G01X522259Y1362717D01*
G01X521454Y1363806D01*
G01X520933Y1364303D01*
G01X520317Y1364753D01*
G01X518281Y1365913D01*
G01X517535Y1366481D01*
G01X516908Y1367049D01*
G01X515772Y1367807D01*
G01X513641Y1368943D01*
G01X511771Y1370080D01*
G01X510990Y1370458D01*
G01X509001Y1371216D01*
G01X506917Y1371973D01*
G01X504432Y1373086D01*
G01X502727Y1373654D01*
G01X500099Y1374246D01*
G01X498111Y1374814D01*
G01X496217Y1375193D01*
G01X494986Y1375383D01*
G01X489683Y1376140D01*
G01X488435Y1376269D01*
G01X483557Y1376466D01*
G01X477183Y1376519D01*
G01X468559Y1376385D01*
G01X466618Y1376229D01*
G01X466277Y1376163D01*
G01X465535Y1375951D01*
G01X463641Y1375572D01*
G01X461179Y1375169D01*
G01X459687Y1374761D01*
G01X458930Y1374430D01*
G01X457391Y1373583D01*
G01X455592Y1373003D01*
G01X454834Y1372719D01*
G01X454077Y1372340D01*
G01X451804Y1370796D01*
G01X450668Y1370103D01*
G01X449200Y1369298D01*
G01X448584Y1368848D01*
G01X448064Y1368351D01*
G01X447235Y1367262D01*
G01X446288Y1366315D01*
G01X445223Y1365510D01*
G01X444796Y1365061D01*
G01X444465Y1364563D01*
G01X443991Y1363427D01*
G01X443234Y1362101D01*
G01X442192Y1360586D01*
G01X441766Y1359758D01*
G01X441435Y1358882D01*
G01X440819Y1356254D01*
G01X440062Y1353602D01*
G01X439600Y1351418D01*
G01X439505Y1350424D01*
G01X431015Y1350424D01*
G01X431018Y1350572D01*
G01X431116Y1351886D01*
G01X431397Y1353602D01*
G01X431637Y1354348D01*
G01X432060Y1355307D01*
G01X432297Y1356064D01*
G01X432439Y1356822D01*
G01X432510Y1358314D01*
G01X432699Y1359639D01*
G01X432865Y1360231D01*
G01X434001Y1363640D01*
G01X434569Y1365185D01*
G01X435327Y1366747D01*
G01X436179Y1368185D01*
G01X436866Y1369890D01*
G01X437434Y1371026D01*
G01X439304Y1373867D01*
G01X440440Y1375359D01*
G01X441955Y1377111D01*
G01X442737Y1378200D01*
G01X443684Y1379147D01*
G01X445270Y1380402D01*
G01X446122Y1381443D01*
G01X446572Y1382011D01*
G01X447164Y1382579D01*
G01X447898Y1383148D01*
G01X449650Y1384284D01*
G01X450697Y1385136D01*
G01X451218Y1385705D01*
G01X451828Y1386510D01*
G01X452277Y1386936D01*
G01X452775Y1387267D01*
G01X453887Y1387717D01*
G01X455024Y1388285D01*
G01X456823Y1389398D01*
G01X459664Y1390913D01*
G01X461510Y1392049D01*
G01X462221Y1392428D01*
G01X463925Y1393185D01*
G01X467530Y1394511D01*
G01X470175Y1395458D01*
G01X472259Y1396393D01*
G01X473016Y1396677D01*
G01X473774Y1396867D01*
G01X474531Y1396962D01*
G01X476331Y1397068D01*
G01X478224Y1397542D01*
G01X480118Y1397920D01*
G01X481349Y1398110D01*
G01X483717Y1398394D01*
G01X486250Y1398512D01*
G01X487576Y1398702D01*
G01X488878Y1399033D01*
G01X489872Y1399151D01*
G01X492713Y1399246D01*
G01X494950Y1399193D01*
G01X496548Y1399033D01*
G01X497850Y1398702D01*
G01X499176Y1398512D01*
G01X501330Y1398394D01*
G01X503224Y1397920D01*
G01X505118Y1397542D01*
G01X507580Y1397139D01*
G01X509072Y1396731D01*
G01X509830Y1396399D01*
G01X511368Y1395553D01*
G01X513570Y1394843D01*
G01X514399Y1394511D01*
G01X515275Y1394085D01*
G01X518826Y1392073D01*
G01X520933Y1390913D01*
G01X521678Y1390345D01*
G01X523229Y1389019D01*
G01X525904Y1387077D01*
G01X527656Y1385634D01*
G01X528319Y1384947D01*
G01X528792Y1384308D01*
G01X528958Y1384006D01*
G01X529313Y1383171D01*
G01X529645Y1382674D01*
G01X530071Y1382224D01*
G01X531160Y1381372D01*
G01X531728Y1380780D01*
G01X532296Y1380046D01*
G01X532865Y1379170D01*
G01X535137Y1375383D01*
G01X535682Y1374412D01*
G01X536179Y1373394D01*
G01X536629Y1372328D01*
G01X537031Y1371216D01*
G01X538546Y1366670D01*
G01X539061Y1364913D01*
G01X539470Y1363048D01*
G01X539683Y1361746D01*
G01X539914Y1359491D01*
G01X540056Y1355656D01*
G01X540061Y1354549D01*
G01X540014Y1352466D01*
G01X539916Y1351152D01*
G01X539635Y1349436D01*
G01X539396Y1348690D01*
G01X538789Y1347193D01*
G01X538505Y1346151D01*
G01X537954Y1343067D01*
G01X537694Y1341955D01*
G01X537215Y1340552D01*
G01X536368Y1338640D01*
G01X535682Y1336391D01*
G01X535113Y1335065D01*
G01X534001Y1333148D01*
G01X532675Y1330129D01*
G01X531917Y1328709D01*
G01X530970Y1327182D01*
G01X530213Y1325761D01*
G01X529077Y1323489D01*
G01X529171Y1322921D01*
G01X530213Y1322731D01*
G01X531633Y1322826D01*
G01X532865Y1323110D01*
G01X540819Y1325761D01*
G01X544506Y1327087D01*
G01X547614Y1328413D01*
G01X548395Y1328792D01*
G01X550437Y1329887D01*
G01X553118Y1331431D01*
G01X554538Y1332094D01*
G01X555970Y1332674D01*
G01X563168Y1337125D01*
G01X567713Y1340155D01*
G01X569844Y1341718D01*
G01X574531Y1345458D01*
G01X575407Y1346192D01*
G01X576141Y1346879D01*
G01X576975Y1347820D01*
G01X577585Y1348654D01*
G01X578532Y1349601D01*
G01X580118Y1350856D01*
G01X581373Y1352442D01*
G01X582320Y1353389D01*
G01X583433Y1354241D01*
G01X584001Y1354833D01*
G01X584569Y1355567D01*
G01X585936Y1357704D01*
G01X586836Y1358888D01*
G01X587433Y1359544D01*
G01X587883Y1360136D01*
G01X588925Y1361746D01*
G01X591576Y1366102D01*
G01X593470Y1370435D01*
G01X594417Y1372459D01*
G01X595364Y1375004D01*
G01X596027Y1377182D01*
G01X597258Y1382958D01*
G01X597637Y1384663D01*
G01X598205Y1386699D01*
G01X598584Y1388972D01*
G01X599105Y1393009D01*
G01X599342Y1394156D01*
G01X599484Y1394596D01*
G01X599768Y1395056D01*
G01X600099Y1395363D01*
G01X600525Y1395624D01*
G01X601046Y1395837D01*
G01X601591Y1395979D01*
G01X602088Y1396026D01*
G01X602538Y1395979D01*
G01X602940Y1395837D01*
G01X603272Y1395221D01*
G01X603508Y1393754D01*
G01X603698Y1388261D01*
G01X603591Y1382325D01*
G01X603408Y1380307D01*
G01X603129Y1379218D01*
G01X602751Y1376945D01*
G01X602182Y1372542D01*
G01X601851Y1370988D01*
G01X601425Y1369511D01*
G01X600833Y1366907D01*
G01X600425Y1365735D01*
G01X600093Y1365072D01*
G01X599555Y1364161D01*
G01X599247Y1363451D01*
G01X598987Y1362646D01*
G01X598560Y1360847D01*
G01X598152Y1359675D01*
G01X597820Y1359012D01*
G01X597282Y1358124D01*
G01X596714Y1356798D01*
G01X596288Y1355354D01*
G01X596027Y1354739D01*
G01X595719Y1354218D01*
G01X594986Y1353342D01*
G01X594228Y1352016D01*
G01X593281Y1349826D01*
G01X592523Y1348406D01*
G01X590819Y1345837D01*
G01X587031Y1340534D01*
G01X585468Y1338403D01*
G01X582912Y1335089D01*
G01X582083Y1333929D01*
G01X581136Y1332982D01*
G01X580023Y1332130D01*
G01X579455Y1331538D01*
G01X578887Y1330804D01*
G01X577774Y1329076D01*
G01X577046Y1328153D01*
G01X576620Y1327774D01*
G01X576046Y1327419D01*
G01X575667Y1327087D01*
G01X574910Y1326140D01*
G01X574058Y1325098D01*
G01X573016Y1324246D01*
G01X570885Y1322684D01*
G01X569110Y1321240D01*
G01X568376Y1320553D01*
G01X567541Y1319612D01*
G01X566932Y1318801D01*
G01X566482Y1318375D01*
G01X565985Y1318044D01*
G01X564896Y1317570D01*
G01X564398Y1317239D01*
G01X563949Y1316813D01*
G01X563144Y1315771D01*
G01X562694Y1315345D01*
G01X562197Y1315013D01*
G01X561060Y1314540D01*
G01X559735Y1313782D01*
G01X557391Y1312125D01*
G01X552562Y1309095D01*
G01X550289Y1307580D01*
G01X549058Y1306917D01*
G01X546927Y1306230D01*
G01X546311Y1305970D01*
G01X545791Y1305662D01*
G01X544938Y1304952D01*
G01X544418Y1304644D01*
G01X543802Y1304384D01*
G01X542381Y1303958D01*
G01X541766Y1303697D01*
G01X541245Y1303389D01*
G01X540369Y1302679D01*
G01X539777Y1302371D01*
G01X539043Y1302111D01*
G01X537268Y1301685D01*
G01X536096Y1301276D01*
G01X535433Y1300945D01*
G01X534498Y1300406D01*
G01X533717Y1300098D01*
G01X532793Y1299838D01*
G01X530639Y1299412D01*
G01X529645Y1299152D01*
G01X528745Y1298844D01*
G01X526644Y1297974D01*
G01X525602Y1297690D01*
G01X523774Y1297352D01*
G01X519228Y1296595D01*
G01X515440Y1295837D01*
G01X513736Y1295458D01*
G01X512410Y1295080D01*
G01X511948Y1294991D01*
G01X509960Y1294849D01*
G37*
G04 Text End*

G04 PolygonModel Start*
G54D10*
G01X1233884Y483848D02*
G01X1175113Y483848D01*
G01X1638882Y483848D02*
G01X1580111Y483848D01*
G01X1776496Y-33746D02*
G01X1776496Y373134D01*
G01X1037499Y-33746D02*
G01X1037499Y373132D01*
G01X1776496Y-33746D02*
G01X1037499Y-33746D01*
G54D11*
G01X1596659Y1587379D02*
G01X1900941Y1587379D01*
G01X1900941Y1587379D02*
G01X1900941Y2092621D01*
G01X1900941Y2092621D02*
G01X1596659Y2092621D01*
G01X1596659Y2092621D02*
G01X1596659Y1587379D01*
G01X1279044Y1703833D02*
G01X1279044Y1575340D01*
G01X1279044Y1575340D02*
G01X1095625Y1575340D01*
G01X1095625Y1575340D02*
G01X1095625Y1703833D01*
G01X1279044Y1799073D02*
G01X1279044Y1927567D01*
G01X1279044Y1927567D02*
G01X1095625Y1927567D01*
G01X1095625Y1927567D02*
G01X1095625Y1799073D01*

G04 Circle Start*
G54D12*
G01X1656877Y1649500D02*
G03X1686900Y1649500I15011J0D01*
G03X1656877Y1649500I-15011J0D01*
G01X1456878Y1575560D02*
G03X1486901Y1575560I15011J0D01*
G03X1456878Y1575560I-15011J0D01*
G04 Circle End*

M02*

