G04 Layer: TopSilkscreenLayer*
G04 EasyEDA Pro v2.2.25.6, 2024-08-18 10:38:01*
G04 Gerber Generator version 0.3*
G04 Scale: 100 percent, Rotated: No, Reflected: No*
G04 Dimensions in millimeters*
G04 Leading zeros omitted, absolute positions, 3 integers and 5 decimals*
%FSLAX35Y35*%
%MOMM*%
%ADD10C,0.254*%
G75*


G04 PolygonModel Start*
G54D10*
G01X345625Y1659999D02*
G01X695632Y1659999D01*
G01X695632Y1939994D02*
G01X345625Y1939994D01*
G01X695632Y1939994D02*
G01X695632Y1928111D01*
G01X695632Y1671881D02*
G01X695632Y1659999D01*
G01X345625Y1939994D02*
G01X345625Y1928111D01*
G01X345625Y1671881D02*
G01X345625Y1659999D01*
G01X671970Y1939994D02*
G01X683750Y1939994D01*
G01X683750Y1939994D02*
G01X695632Y1928111D01*
G36*
G01X721878Y1654995D02*
G01X791878Y1654995D01*
G01X791878Y1724995D01*
G01X721878Y1654995D01*
G37*
G01X1235624Y1659999D02*
G01X1585631Y1659999D01*
G01X1585631Y1939994D02*
G01X1235624Y1939994D01*
G01X1585631Y1939994D02*
G01X1585631Y1928111D01*
G01X1585631Y1671881D02*
G01X1585631Y1659999D01*
G01X1235624Y1939994D02*
G01X1235624Y1928111D01*
G01X1235624Y1671881D02*
G01X1235624Y1659999D01*
G01X1561968Y1939994D02*
G01X1573748Y1939994D01*
G01X1573748Y1939994D02*
G01X1585631Y1928111D01*
G36*
G01X1611876Y1654995D02*
G01X1681876Y1654995D01*
G01X1681876Y1724995D01*
G01X1611876Y1654995D01*
G37*
G01X2105622Y1659999D02*
G01X2455629Y1659999D01*
G01X2455629Y1939994D02*
G01X2105622Y1939994D01*
G01X2455629Y1939994D02*
G01X2455629Y1928111D01*
G01X2455629Y1671881D02*
G01X2455629Y1659999D01*
G01X2105622Y1939994D02*
G01X2105622Y1928111D01*
G01X2105622Y1671881D02*
G01X2105622Y1659999D01*
G01X2431966Y1939994D02*
G01X2443747Y1939994D01*
G01X2443747Y1939994D02*
G01X2455629Y1928111D01*
G36*
G01X2481875Y1654995D02*
G01X2551875Y1654995D01*
G01X2551875Y1724995D01*
G01X2481875Y1654995D01*
G37*
G01X345625Y910001D02*
G01X695632Y910001D01*
G01X695632Y1189995D02*
G01X345625Y1189995D01*
G01X695632Y1189995D02*
G01X695632Y1178113D01*
G01X695632Y921883D02*
G01X695632Y910001D01*
G01X345625Y1189995D02*
G01X345625Y1178113D01*
G01X345625Y921883D02*
G01X345625Y910001D01*
G01X671970Y1189995D02*
G01X683750Y1189995D01*
G01X683750Y1189995D02*
G01X695632Y1178113D01*
G36*
G01X721878Y904997D02*
G01X791878Y904997D01*
G01X791878Y974997D01*
G01X721878Y904997D01*
G37*
G01X2105622Y910001D02*
G01X2455629Y910001D01*
G01X2455629Y1189995D02*
G01X2105622Y1189995D01*
G01X2455629Y1189995D02*
G01X2455629Y1178113D01*
G01X2455629Y921883D02*
G01X2455629Y910001D01*
G01X2105622Y1189995D02*
G01X2105622Y1178113D01*
G01X2105622Y921883D02*
G01X2105622Y910001D01*
G01X2431966Y1189995D02*
G01X2443747Y1189995D01*
G01X2443747Y1189995D02*
G01X2455629Y1178113D01*
G36*
G01X2481875Y904997D02*
G01X2551875Y904997D01*
G01X2551875Y974997D01*
G01X2481875Y904997D01*
G37*
G01X345625Y160002D02*
G01X695632Y160002D01*
G01X695632Y439997D02*
G01X345625Y439997D01*
G01X695632Y439997D02*
G01X695632Y428114D01*
G01X695632Y171884D02*
G01X695632Y160002D01*
G01X345625Y439997D02*
G01X345625Y428114D01*
G01X345625Y171884D02*
G01X345625Y160002D01*
G01X671970Y439997D02*
G01X683750Y439997D01*
G01X683750Y439997D02*
G01X695632Y428114D01*
G36*
G01X721878Y154998D02*
G01X791878Y154998D01*
G01X791878Y224998D01*
G01X721878Y154998D01*
G37*
G01X1235624Y160002D02*
G01X1585631Y160002D01*
G01X1585631Y439997D02*
G01X1235624Y439997D01*
G01X1585631Y439997D02*
G01X1585631Y428114D01*
G01X1585631Y171884D02*
G01X1585631Y160002D01*
G01X1235624Y439997D02*
G01X1235624Y428114D01*
G01X1235624Y171884D02*
G01X1235624Y160002D01*
G01X1561968Y439997D02*
G01X1573748Y439997D01*
G01X1573748Y439997D02*
G01X1585631Y428114D01*
G36*
G01X1611876Y154998D02*
G01X1681876Y154998D01*
G01X1681876Y224998D01*
G01X1611876Y154998D01*
G37*
G01X2105622Y160002D02*
G01X2455629Y160002D01*
G01X2455629Y439997D02*
G01X2105622Y439997D01*
G01X2455629Y439997D02*
G01X2455629Y428114D01*
G01X2455629Y171884D02*
G01X2455629Y160002D01*
G01X2105622Y439997D02*
G01X2105622Y428114D01*
G01X2105622Y171884D02*
G01X2105622Y160002D01*
G01X2431966Y439997D02*
G01X2443747Y439997D01*
G01X2443747Y439997D02*
G01X2455629Y428114D01*
G36*
G01X2481875Y154998D02*
G01X2551875Y154998D01*
G01X2551875Y224998D01*
G01X2481875Y154998D01*
G37*

M02*

