G04 Layer: TopLayer*
G04 EasyEDA Pro v2.2.25.6, 2024-08-18 10:38:01*
G04 Gerber Generator version 0.3*
G04 Scale: 100 percent, Rotated: No, Reflected: No*
G04 Dimensions in millimeters*
G04 Leading zeros omitted, absolute positions, 3 integers and 5 decimals*
%FSLAX35Y35*%
%MOMM*%
%ADD10O,1.0X2.0*%
%ADD11R,1.55001X2.1*%
%ADD12R,2.3X2.1*%
%ADD13C,0.6*%
%ADD14C,0.6096*%
%ADD15C,0.254*%
G75*


G04 Pad Start*
G54D10*
G01X1689486Y181240D03*
G01X1124488Y181240D03*
G54D11*
G01X376860Y1799996D03*
G54D12*
G01X623113Y1799996D03*
G54D11*
G01X1266858Y1799996D03*
G54D12*
G01X1513111Y1799996D03*
G54D11*
G01X2136856Y1799996D03*
G54D12*
G01X2383109Y1799996D03*
G54D11*
G01X376860Y1049998D03*
G54D12*
G01X623113Y1049998D03*
G54D11*
G01X2136856Y1049998D03*
G54D12*
G01X2383109Y1049998D03*
G54D11*
G01X376860Y299999D03*
G54D12*
G01X623113Y299999D03*
G54D11*
G01X1266858Y299999D03*
G54D12*
G01X1513111Y299999D03*
G54D11*
G01X2136856Y299999D03*
G54D12*
G01X2383109Y299999D03*
G04 Pad End*

G04 Via Start*
G54D13*
G01X2255050Y1964198D03*
G01X854056Y1859408D03*
G54D14*
G01X1798787Y1890012D03*
G01X1798787Y1790013D03*
G01X1698787Y1790013D03*
G01X1698787Y1890012D03*
G04 Via End*

G04 Track Start*
G54D15*
G01X372261Y308976D02*
G01X377462Y303775D01*
G01X377462Y1619626D02*
G01X372261Y1624827D01*
G01X2137998Y1796459D02*
G01X2137998Y1619626D01*
G01X372261Y1801660D02*
G01X372261Y1624827D01*
G01X372261Y308976D01*
G01X1266832Y1796459D02*
G01X1266832Y1620007D01*
G01X1267213Y1619626D01*
G01X2137998Y1619626D02*
G01X1267213Y1619626D01*
G01X377462Y1619626D01*
G01X1518512Y1796306D02*
G01X1518512Y2014748D01*
G01X629143Y2022549D02*
G01X2387078Y2022549D01*
G01X2387078Y52690D01*
G01X639545Y1801507D02*
G01X629143Y1811909D01*
G01X621475Y52690D02*
G01X621132Y52347D01*
G01X621132Y1036587D02*
G01X636157Y1051612D01*
G01X1511369Y301224D02*
G01X1511369Y53161D01*
G01X1510898Y52690D01*
G01X2387078Y52690D02*
G01X1510898Y52690D01*
G01X621475Y52690D01*
G01X621132Y52347D02*
G01X621132Y1036587D01*
G01X848278Y1853629D02*
G01X854056Y1859408D01*
G01X626947Y1853629D02*
G01X629143Y1853629D01*
G01X848278Y1853629D01*
G01X629143Y1811909D02*
G01X629143Y1853629D01*
G01X629143Y2022549D01*
G01X1266572Y299351D02*
G01X1266572Y471947D01*
G01X1265802Y472717D01*
G01X2137227Y472717D01*
G01X2137998Y473488D01*
G01X2137998Y1619626D02*
G01X2137998Y473488D01*
G01X2137998Y303775D01*
G01X2138605Y1804292D02*
G01X2138605Y1847753D01*
G01X2255050Y1964198D01*
G04 Track End*

M02*

